<?xml version="1.0" encoding="utf-8"?>
<!-- Generator: Adobe Illustrator 28.4.1, SVG Export Plug-In . SVG Version: 6.00 Build 0)  -->
<svg version="1.1" id="Layer_1" xmlns="http://www.w3.org/2000/svg" xmlns:xlink="http://www.w3.org/1999/xlink" x="0px" y="0px"
	 viewBox="0 0 1519 663" style="enable-background:new 0 0 1519 663;" xml:space="preserve">
<style type="text/css">
	.st0{fill:#FECF05;}
	.st1{fill:#020203;}
</style>
<path class="st0" d="M740.2,1.8h39.3L798.1,4l17.1,3.7l17.8,5.2l15.6,5.9l18.5,8.9l14.8,8.2l14.8,10.4l11.9,9.6l10.4,8.9l12.6,12.6
	l8.2,10.4l10.4,13.4L959,116l8.9,17.1l5.9,14.1l7.4,22.3l4.5,19.3l2.2,17.1l1.5,16.3v19.3l-3,26.7l-3,14.8L979,300l-5.2,14.8
	l-8.2,17.8l-9.6,17.8l-11.1,16.3l-8.2,10.4l-9.6,11.1l-11.9,11.9l-8.2,6.7l-11.1,8.9l-15.6,10.4l-17.1,9.6l-16.3,7.4l-18.5,6.7
	l-18.5,5.2l-22.3,3.7l-8.2,0.7h-42.3l-21.5-3l-18.5-4.5l-22.3-7.4l-19.3-8.9l-12.6-6.7l-14.1-8.9l-11.9-8.9l-8.2-6.7l-5.2-5.2
	l-5.9-5.2l-8.2-8.2l-5.2-5.9l-9.6-11.9l-8.2-11.9l-7.4-11.9l-8.9-17.1l-5.9-13.4l-7.4-22.3l-4.5-20.8l-1.5-8.9l-1.5-17.1v-27.4
	l1.5-17.1l3.7-20.8l5.2-18.5l5.9-16.3l5.9-13.4l8.9-17.1l8.2-12.6l9.6-13.4l9.6-11.1l10.4-11.1l9.6-8.9l8.9-7.4l13.4-9.6l13.4-8.2
	l14.8-8.2l18.5-8.2L695,10l21.5-5.2l14.1-2.2L740.2,1.8z"/>
<path class="st1" d="M1129.6,307.4l14.1,0.7l14.8,3l13.4,4.5l11.9,5.9l11.1,6.7l7.4,5.9l7.4,6.7l7.4,7.4l8.2,11.1l6.7,11.9l5.2,14.1
	l3,14.8l0.7,8.2v6.7l-2.2,15.6l-4.5,11.9l-4.5,8.2l-5.9,7.4l-8.9,8.9l-8.2,5.2l-3.7,1.5h-5.9l-5.9-3l-4.5-5.2l-2.2-5.2v-8.9l3-5.2
	l8.2-6.7l6.7-8.9l3.7-7.4l3-10.4v-16.3l-3-11.9l-5.9-11.9l-6.7-8.9l-6.7-6.7l-10.4-7.4l-11.9-5.9l-13.4-4.5l-8.2-1.5l-11.9-0.7
	l-8.2,0.7h-8.9l-5.2-3l-3.7-4.5l-2.2-5.2v-5.9l3-5.9l4.5-3l10.4-2.2L1129.6,307.4z"/>
<path class="st1" d="M1079.9,263.6h8.9l5.9,3l4.5,5.2l2.2,5.2v8.2l-2.2,4.5l-3,3.7l-7.4,3.7l-16.3,2.2l-14.1,3.7l-3.7,1.5l11.9,9.6
	l10.4,8.2l8.2,6.7l3,6.7v6.7l-3,7.4l-5.9,5.2l-4.5,1.5h-5.9l-5.9-2.2l-8.2-5.9l-11.9-9.6l-10.4-8.2l-8.2-8.2l-5.2-8.9l-2.2-8.9v-5.9
	l2.2-8.2l3.7-5.9l5.2-5.2l10.4-5.9l12.6-4.5l17.1-3.7L1079.9,263.6z"/>
<path d="M224.4,589.9c3.2,5,1.1,13.1-4.3,15.8c-16.5,8.5-35.5,9-52.5,1.6c-14.2-6.1-24.6-18.4-30.2-32.6
	c-5.8-14.2-4.6-29.9,1.6-43.7c6.4-13.6,18.4-24,32.2-28.8c7.8-2.7,16.2-3.2,24.2-1.9c8.2,1.1,15.2,4.8,21.6,9.6
	c5.1,4.2,3.8,12.3,0,16.5c-2.1,2.2-5.4,3.5-8.2,3.5c-2.9,0-5-1-7-2.6c-4.2-2.6-9.3-4.3-14.4-4.5c-9.6,0-18.7,5.6-24.3,14.1
	c-4.5,6.7-6.9,15.2-5.4,23.5c1.4,7.7,5.3,14.9,11.7,20.5c6.7,5.6,15,9,24.8,8.3c4.2-0.2,8.3-1.1,12.3-2.6c0.5-0.2,0.8-0.5,1.3-0.6
	c0.3-0.2,0.6-0.3,0.8-0.5C214.4,582.7,220.8,584.3,224.4,589.9z M206.2,586.7c0.3,0,0.8-0.2,1.4-0.6
	C207,586.2,206.7,586.5,206.2,586.7z"/>
<path d="M231.5,544.6c0.3-8.2,0.8-16.2,1.8-24.3c0.6-6.6,4.6-11.4,11.5-11.5c5.8-0.3,12,5.4,11.5,11.5c-1.1,11.4-4,40-0.6,51.8
	c1.9,8.3,7.5,18.4,17.9,18.4c11.8,0,16.5-10.9,17.8-23c1.4-14.9-0.8-30.4-5-45.9c-1.4-6.2,2.1-12.2,8.2-14.2
	c5.9-1.9,12.6,2.2,14.1,8.2c2.6,9.3,4.2,18.7,5.1,28.3c0.8,7.7,1.6,15.5,1,23c-1,13.9-4.8,28.6-16,37.6
	c-12.3,10.4-30.4,12.6-44.3,4.3C232.6,596,230.5,568.4,231.5,544.6z"/>
<path d="M344.6,604.4c0.2,6.6-5.4,11.4-11.5,11.5c-6.2,0.3-11.4-5.4-11.5-11.5c-0.5-31.4-1.9-62.7-3.7-94.1
	c-0.3-6.4,5.6-11.2,11.5-11.5c3-0.2,5.4,1,7.4,2.6c8.5-0.6,18.4,0.8,27,4.3c15.2,6.1,25.4,21,24.8,37.4
	c-0.5,14.7-9.3,27.5-21.3,36.6c3.2,1,6.4,1.8,9.8,2.6c6.2,1.8,9.3,8.3,8,14.2c-1.3,6.2-8.2,9.6-14.2,8.2c-8.8-2.4-17.6-5-26.4-8.3
	C344.4,599,344.6,601.7,344.6,604.4z M358.2,528.8c-4.3-2.6-10.1-3.5-16.2-4.5h-0.2c0.6,14.1,1.3,28,1.8,42.1c5.6-1.8,11-4.8,15-9.3
	C365.4,549.7,369.1,535.2,358.2,528.8z"/>
<path d="M393.1,592.6c1.6-6.2,8.5-9.4,14.2-8c6.1,1.6,17.1,4.3,22.1-1.3c4.2-5.3-1.9-10.1-5.8-13c-9.8-7.2-24-15.8-27.8-27.2
	c-9.8-28.6,25.9-47.5,49.6-46.9c6.4,0.2,11.2,5.4,11.5,11.7c0.2,6.2-5.6,11-11.5,11.5c-17.9,1.4-39.4,12-20.2,23.2
	c8.5,6.1,24.5,16,29,28c2.6,6.6,1.8,13.6-1.1,19.8c-8.8,19-31.7,21-51.8,16.3C395,605.4,391.8,598.4,393.1,592.6z"/>
<path d="M460.9,544.6c0.3-8.2,0.8-16.2,1.8-24.3c0.6-6.6,4.6-11.4,11.5-11.5c5.8-0.3,12,5.4,11.5,11.5c-1.1,11.4-4,40-0.6,51.8
	c1.9,8.3,7.5,18.4,17.9,18.4c11.8,0,16.5-10.9,17.8-23c1.4-14.9-0.8-30.4-5-45.9c-1.4-6.2,2.1-12.2,8.2-14.2
	c5.9-1.9,12.6,2.2,14.1,8.2c2.6,9.3,4.2,18.7,5.1,28.3c0.8,7.7,1.6,15.5,1,23c-1,13.9-4.8,28.6-16,37.6
	c-12.3,10.4-30.4,12.6-44.3,4.3C462,596,460,568.4,460.9,544.6z"/>
<path d="M574,604.4c0.2,6.6-5.4,11.4-11.5,11.5c-6.2,0.3-11.4-5.4-11.5-11.5c-0.5-31.4-1.9-62.7-3.7-94.1
	c-0.3-6.4,5.6-11.2,11.5-11.5c3-0.2,5.4,1,7.4,2.6c8.5-0.6,18.4,0.8,27,4.3c15.2,6.1,25.4,21,24.8,37.4
	c-0.5,14.7-9.3,27.5-21.3,36.6c3.2,1,6.4,1.8,9.8,2.6c6.2,1.8,9.3,8.3,8,14.2c-1.3,6.2-8.2,9.6-14.2,8.2c-8.8-2.4-17.6-5-26.4-8.3
	C573.9,599,574,601.7,574,604.4z M587.6,528.8c-4.3-2.6-10.1-3.5-16.2-4.5h-0.2c0.6,14.1,1.3,28,1.8,42.1c5.6-1.8,11-4.8,15-9.3
	C594.8,549.7,598.5,535.2,587.6,528.8z"/>
<path d="M634.5,610.2c-6.2,0.3-11.8-5.6-11.7-11.7c0.6-18.9,1.4-37.9,1.9-57c0.2-6.6,5.1-11.4,11.5-11.5c6.1-0.3,11.7,5.4,11.5,11.5
	c-0.6,19-1.1,38.1-1.8,57C645.9,605.1,640.9,609.7,634.5,610.2z M625.6,507.8c-0.2-6.4,5.6-11.7,11.5-11.7c6.6,0,11.4,5.3,11.5,11.7
	c0.3,6.2-5.4,11.5-11.5,11.5C630.7,519.3,625.9,514,625.6,507.8z"/>
<path d="M792.8,606.8c-17.1,6.2-39.4,9.1-57,3c-43.2-14.9-29.9-69.3,3.2-89c18.2-10.6,44.2-13.8,59,3.4c2.1,2.4,3.2,5,3.4,8
	c0.2,3.2-1.3,6.1-3.4,8.3c-1.9,2.1-5.3,3.4-8.2,3.4c-2.6,0-6.6-1.3-8.2-3.4c-4.3-4.3-11-5.8-17.4-5c-6.2,0.6-12.6,3.7-18.1,8
	c-14.2,11.2-25.1,35.4-1.6,45c12.5,5,27.5,1.4,41.9-4c6.1-2.2,12.5,2.6,14.2,8C802.8,598.8,798.4,604.9,792.8,606.8z"/>
<path d="M806.8,544.6c0.3-8.2,0.8-16.2,1.8-24.3c0.6-6.6,4.6-11.4,11.5-11.5c5.8-0.3,12,5.4,11.5,11.5c-1.1,11.4-4,40-0.6,51.8
	c1.9,8.3,7.5,18.4,17.9,18.4c11.8,0,16.5-10.9,17.8-23c1.4-14.9-0.8-30.4-5-45.9c-1.4-6.2,2.1-12.2,8.2-14.2
	c5.9-1.9,12.6,2.2,14.1,8.2c2.6,9.3,4.2,18.7,5.1,28.3c0.8,7.7,1.6,15.5,1,23c-1,13.9-4.8,28.6-16,37.6
	c-12.3,10.4-30.4,12.6-44.3,4.3C808,596,805.9,568.4,806.8,544.6z"/>
<path d="M1007.9,601.1c1.8,5.8-2.1,13.1-8,14.2c-6.4,1.4-12.6,2.2-18.9,2.9c-5.3,0.5-11.5,1.6-16.8,0c-6.4-1.8-11-6.9-12.3-13.4
	c-1-5-0.6-9.9-0.6-15c0-10.1,0-20,0-29.9c0-19.8,0-39.7,0-59.5c0-6.7,5.3-11.4,11.5-11.7c6.2-0.3,11.5,5.6,11.5,11.7
	c0,10.2,0.2,20.5,0.2,30.7c0,18.1,0,36,0,54.1c0,3.4-0.2,7,0,10.6c6.4-0.3,12.6-1.3,19-2.7C1000.1,591.5,1005.9,594.8,1007.9,601.1z
	"/>
<path d="M1081.7,520.6c9.9,6.1,17.6,15.7,21,26.6c5.6,17.9-0.3,38.6-13.6,51.5c-14.7,14.1-37.4,18.7-55.7,8.3
	c-18.1-10.4-24.6-33.4-17.9-52.6C1024.1,528.4,1052.6,502.5,1081.7,520.6z M1080.7,565.2c2.7-17.1-13.4-35-28.6-23.4
	c-6.7,4.8-11.7,11.5-14.2,19.4c-2.7,8-1.1,15.2,3,20.5c7.7,10.4,23.5,9.4,32.6-0.2C1077.7,577.4,1079.8,571.8,1080.7,565.2z"/>
<path d="M1134.7,604.4c0.2,6.6-5.4,11.4-11.5,11.5c-6.2,0.3-11.4-5.4-11.5-11.5c-0.5-31.4-1.9-62.7-3.7-94.1
	c-0.3-6.4,5.6-11.2,11.5-11.5c3-0.2,5.4,1,7.4,2.6c8.5-0.6,18.4,0.8,27,4.3c15.2,6.1,25.4,21,24.8,37.4
	c-0.5,14.7-9.3,27.5-21.3,36.6c3.2,1,6.4,1.8,9.8,2.6c6.2,1.8,9.3,8.3,8,14.2c-1.3,6.2-8.2,9.6-14.2,8.2c-8.8-2.4-17.6-5-26.4-8.3
	C1134.5,599,1134.7,601.7,1134.7,604.4z M1148.3,528.8c-4.3-2.6-10.1-3.5-16.2-4.5h-0.2c0.6,14.1,1.3,28,1.8,42.1
	c5.6-1.8,11-4.8,15-9.3C1155.5,549.7,1159.1,535.2,1148.3,528.8z"/>
<path d="M1185.1,570.2c-0.6-13.4-0.3-26.7,1.3-40.2c0.6-6.9,0.8-15.2,4.8-21.3c4.3-7,12.3-10.1,20.5-9.3c6.7,0.5,13.3,2.1,19.8,3.5
	c6.7,1.3,13.1,2.6,19.7,3.7c6.2,1.4,9.3,8.6,8.2,14.4c-1.4,6.2-8.5,9.1-14.2,8c-6.6-1.3-13-2.6-19.7-3.8c-3-0.6-6.1-1.1-9.3-1.8
	c-6.7-1.1-5.9-1.9-6.7,5.6c-0.3,2.7-0.5,5.8-0.8,8.5c-0.3,5-0.6,10.1-0.6,15.2c5.1-0.5,10.1-0.8,15.2-1c6.4-0.3,11.2,5.4,11.5,11.5
	c0.3,6.4-5.6,11.4-11.5,11.7c-4.8,0.2-9.8,0.3-14.6,0.8c0.2,1.8,0.3,3.7,0.5,5.3c0,1.3,0.2,2.4,0.3,3.8c0,0,0,0,0-0.2
	c0,0.2,0,0.2,0,0.2c0,0.3,0,0.5,0,0.8c0,0.2,0.2,0.3,0.2,0.3c0,0.2,0,0.2,0,0.2c0.3,1.9,1,4,1.4,5.8c0.2,0.3,0.3,0.5,0.6,0.8
	c0.2,0,0.2,0.2,0.3,0.2v0.2c0.2,0,0.5,0.2,0.8,0.2c1.1,0,2.2,0,3.2,0c0.2,0,1.8-0.3,1.8-0.3c5.6-1,11.2-2.1,16.8-3.4
	c6.2-1.4,12,1.8,14.2,8c1.8,5.8-2.2,13.1-8.2,14.2c-14.7,3-33.6,9.8-45.8-3c-4.5-4.8-6.7-11.2-7.7-17.4
	C1186.2,584.1,1185.4,577.2,1185.1,570.2z M1209.4,584.9c0.5,1.1,0.3,1.8,0.2,1.1C1209.5,585.7,1209.4,585.2,1209.4,584.9z
	 M1211.6,592.6c-0.3,0-0.5-0.2-0.5-0.2S1211.3,592.4,1211.6,592.6z M1211.8,592.9 M1211.8,593.1 M1211.9,593.1
	c0.2,0,0.3,0.2,0.5,0.2C1212.4,593.2,1212.3,593.1,1211.9,593.1z M1213.1,593.2c0.2,0.2,0.5,0.2,0.3,0.2
	C1213.4,593.4,1213.2,593.4,1213.1,593.2z"/>
<path d="M1323.8,582.2c-12.6,0.5-20.6-10.6-26.9-19.8c-3.7-5.1-6.9-10.4-10.1-15.7c0,8.8,0.2,17.4,0.8,26.1
	c0.6,10.1,2.1,19.8,3,30.2c1.1,6.6-1.4,12.2-8,14.2c-5.4,1.8-13.3-1.9-14.2-8.2c-1.9-13.6-3.7-27.4-4.3-41.3
	c-0.6-12.6-1.1-25.9,0-38.6c0.8-8.8,5.4-17.3,15.4-17.8c7.4-0.3,13,4.3,17.4,9.8c6.9,8.6,12.3,18.1,18.4,27.4
	c5.6,9.3,8.2,9.3,11.4,5.8c5.4-6.1,10.2-13.1,15.8-19.7c5.4-6.9,16.3-22.1,25-25.6c8.8-3.8,18.1,1.4,20.6,10.4
	c1.8,5.1,1,10.9,0.6,16.2c-1.4,23.7-2.7,47.4-4,71.2c-0.3,6.4-5,11.2-11.5,11.5c-6.1,0.2-12-5.6-11.7-11.5
	c1.3-21.1,2.6-42.2,3.7-63.4c-9,9.1-16.5,21.4-25.1,30.7C1335.8,578.8,1330,582,1323.8,582.2z"/>
<path d="M804.3,165.5c13.8-0.7,25.4,12,25.4,25.8c0,14.1-11.6,24.7-25.4,25.4c-13.8,0.4-25.4-12.3-25.4-25.4
	C778.9,176.4,790.6,165.8,804.3,165.5z M705.5,165.5c13.8-0.7,25.4,12,25.4,25.8c0,14.1-11.6,24.7-25.4,25.4
	c-13.8,0.4-25.4-12.3-25.4-25.4C680.1,176.4,691.8,165.8,705.5,165.5z"/>
<path d="M794.8,311c32.1-18,56.5-51.5,65.6-85c12.7-27.9,51.9-12.3,41.3,19.4c-22.9,86.1-113.3,149.2-189.8,127
	c-58.6-17.3-95.3-66-96.3-135.5c2.8-39.2,48-30.7,49-3.5C670.2,308.9,734.8,345.2,794.8,311z"/>
</svg>
