<?xml version="1.0" encoding="utf-8"?>
<!-- Generator: Adobe Illustrator 28.4.1, SVG Export Plug-In . SVG Version: 6.00 Build 0)  -->
<svg version="1.1" id="Layer_1" xmlns="http://www.w3.org/2000/svg" xmlns:xlink="http://www.w3.org/1999/xlink" x="0px" y="0px"
	 viewBox="0 0 459.9 457.6" style="enable-background:new 0 0 459.9 457.6;" xml:space="preserve">
<style type="text/css">
	.st0{fill:#FECF05;}
</style>
<path class="st0" d="M210.7,0.7H250l18.5,2.2l17.1,3.7l17.8,5.2l15.6,5.9l18.5,8.9l14.8,8.2l14.8,10.4l11.9,9.6l10.4,8.9l12.6,12.6
	l8.2,10.4l10.4,13.4l8.9,14.8l8.9,17.1l5.9,14.1l7.4,22.3l4.5,19.3l2.2,17.1l1.5,16.3v19.3l-3,26.7l-3,14.8l-4.5,17.1l-5.2,14.8
	l-8.2,17.8l-9.6,17.8l-11.1,16.3l-8.2,10.4l-9.6,11.1L385.8,399l-8.2,6.7l-11.1,8.9l-15.6,10.4l-17.1,9.6l-16.3,7.4l-18.5,6.7
	l-18.5,5.2l-22.3,3.7l-8.2,0.7h-42.3l-21.5-3l-18.5-4.5l-22.3-7.4l-19.3-8.9l-12.6-6.7L99.5,419l-11.9-8.9l-8.2-6.7l-5.2-5.2
	l-5.9-5.2l-8.2-8.2L55,379l-9.6-11.9l-8.2-11.9l-7.4-11.9l-8.9-17.1l-5.9-13.4l-7.4-22.3L3,269.9L1.6,261L0.1,244v-27.4l1.5-17.1
	l3.7-20.8l5.2-18.5l5.9-16.3l5.9-13.4l8.9-17.1l8.2-12.6L49,87.5l9.6-11.1l10.4-11.1l9.6-8.9l8.9-7.4l13.4-9.6l13.4-8.2l14.8-8.2
	l18.5-8.2l17.8-5.9L187,3.7l14.1-2.2L210.7,0.7z"/>
<path d="M274.8,164.3c13.8-0.7,25.4,12,25.4,25.8c0,14.1-11.6,24.7-25.4,25.4c-13.8,0.4-25.4-12.3-25.4-25.4
	C249.4,175.3,261.1,164.7,274.8,164.3z M176,164.3c13.8-0.7,25.4,12,25.4,25.8c0,14.1-11.6,24.7-25.4,25.4
	c-13.8,0.4-25.4-12.3-25.4-25.4C150.6,175.3,162.3,164.7,176,164.3z"/>
<path d="M265.3,309.8c32.1-18,56.5-51.5,65.6-85c12.7-27.9,51.9-12.3,41.3,19.4c-22.9,86.1-113.3,149.2-189.8,127
	c-58.6-17.3-95.3-66-96.3-135.5c2.8-39.2,48-30.7,49-3.5C140.7,307.7,205.3,344.1,265.3,309.8z"/>
</svg>
