<?xml version="1.0" encoding="UTF-8"?>
<svg id="Layer_1" data-name="Layer 1" xmlns="http://www.w3.org/2000/svg" viewBox="0 0 459.85 457.63">
  <defs>
    <style>
      .cls-1 {
        fill: #020202;
      }

      .cls-1, .cls-2, .cls-3, .cls-4, .cls-5, .cls-6, .cls-7, .cls-8, .cls-9, .cls-10, .cls-11, .cls-12, .cls-13, .cls-14, .cls-15, .cls-16, .cls-17, .cls-18, .cls-19, .cls-20, .cls-21, .cls-22, .cls-23, .cls-24, .cls-25, .cls-26, .cls-27, .cls-28, .cls-29 {
        stroke-width: 0px;
      }

      .cls-2 {
        fill: #e4e0e7;
      }

      .cls-3 {
        fill: #e3e1ec;
      }

      .cls-4 {
        fill: #000;
      }

      .cls-5 {
        fill: #f1dfbb;
      }

      .cls-6 {
        fill: #000001;
      }

      .cls-7 {
        fill: #d2cddf;
      }

      .cls-8 {
        fill: #e3e0e9;
      }

      .cls-9 {
        fill: #a39ec6;
      }

      .cls-10 {
        fill: #d3cee0;
      }

      .cls-11 {
        fill: #ecebf6;
      }

      .cls-12 {
        fill: #ebeaf1;
      }

      .cls-13 {
        fill: #7676da;
      }

      .cls-14 {
        fill: #efdebb;
      }

      .cls-15 {
        fill: #e8e4ec;
      }

      .cls-16 {
        fill: #e3dde3;
      }

      .cls-17 {
        fill: #aca8b2;
      }

      .cls-18 {
        fill: #e2dfec;
      }

      .cls-19 {
        fill: #c3bfe0;
      }

      .cls-20 {
        fill: #c9bdc5;
      }

      .cls-21 {
        fill: #eddbbc;
      }

      .cls-22 {
        fill: #dedbea;
      }

      .cls-23 {
        fill: #e5e2ea;
      }

      .cls-24 {
        fill: #fecf05;
      }

      .cls-25 {
        fill: #ebeaf5;
      }

      .cls-26 {
        fill: #e1e0f1;
      }

      .cls-27 {
        fill: #d5d0e2;
      }

      .cls-28 {
        fill: #e0ddeb;
      }

      .cls-29 {
        fill: #bab7c2;
      }
    </style>
  </defs>
  <path class="cls-24" d="M210.64,0h39.31l18.54,2.23,17.06,3.71,17.8,5.19,15.58,5.93,18.54,8.9,14.83,8.16,14.83,10.38,11.87,9.64,10.38,8.9,12.61,12.61,8.16,10.38,10.38,13.35,8.9,14.83,8.9,17.06,5.93,14.09,7.42,22.25,4.45,19.28,2.23,17.06,1.48,16.32v19.28l-2.97,26.7-2.97,14.83-4.45,17.06-5.19,14.83-8.16,17.8-9.64,17.8-11.13,16.32-8.16,10.38-9.64,11.13-11.87,11.87-8.16,6.68-11.13,8.9-15.58,10.38-17.06,9.64-16.32,7.42-18.54,6.68-18.54,5.19-22.25,3.71-8.16.74h-42.28l-21.51-2.97-18.54-4.45-22.25-7.42-19.28-8.9-12.61-6.68-14.09-8.9-11.87-8.9-8.16-6.68-5.19-5.19-5.93-5.19-8.16-8.16-5.19-5.93-9.64-11.87-8.16-11.87-7.42-11.87-8.9-17.06-5.93-13.35-7.42-22.25-4.45-20.77-1.48-8.9-1.48-17.06v-27.44l1.48-17.06,3.71-20.77,5.19-18.54,5.93-16.32,5.93-13.35,8.9-17.06,8.16-12.61,9.64-13.35,9.64-11.13,10.38-11.13,9.64-8.9,8.9-7.42,13.35-9.64,13.35-8.16,14.83-8.16,18.54-8.16,17.8-5.93,21.51-5.19,14.09-2.23,9.64-.74Z"/>
  <path class="cls-4" d="M232.15,65.27h5.19l11.87,6.68,5.93,3.71,2.23.74h14.83l6.68,2.97,2.97,5.19,1.48,5.19,5.93,5.93,5.19,2.97,8.9,2.23,7.42,4.45,8.9,8.9,4.45,6.68,2.97,9.64.74.74,13.35,2.23,4.45,2.97,5.93,6.68,5.19,10.38,2.23,8.9,4.45,33.38v14.83l-2.23,9.64.74,5.19,6.68,14.09.74,2.97v6.68l-5.19,28.18-2.97,9.64-4.45,8.16-5.93,7.42-5.93,4.45-7.42,2.97-5.19.74-2.23,11.13-4.45,13.35-5.93,12.61-5.19,6.68-11.87,11.87-5.93,5.19-9.64,8.16-9.64,5.19-7.42,6.68-10.38,7.42-11.87,5.93-9.64,2.23-6.68.74h-18.54l-13.35-1.48-8.16-2.23-6.68-5.19-4.45-5.19-6.68-12.61-5.19-12.61-11.13-20.03-3.71-8.9-11.13-30.41-2.97-14.09-8.16-4.45-5.93-6.68-3.71-8.9-2.97-10.38-2.97-5.93-.74-7.42,4.45-2.23,15.58-3.71v-2.23l-.74-.74v-4.45l1.48-1.48-.74-9.64v-20.03l.74-3.71-2.97-1.48-10.38-17.06-3.71-5.93v-26.7l5.19-5.93,7.42-7.42,11.13-5.93h1.48l.74-6.68,2.97-8.9,4.45-8.9,6.68-6.68,5.93-2.97,5.93-2.23,7.42-6.68,5.93-4.45,8.9-5.93,7.42-6.68,1.48-.74h18.54l6.68-2.23,5.19-4.45Z"/>
  <path class="cls-14" d="M304.1,242.54h3.71l4.45,14.83,7.42,13.35,2.97,4.45,5.19.74v25.22l-1.48,12.61-4.45,15.58-5.19,11.87-4.45,7.42-7.42,8.16-5.93,5.19-8.9,8.16-7.42,5.93v-2.23l8.16-15.58-4.45,5.93-5.19,8.16-16.32,16.32-9.64,6.68-7.42,3.71-7.42,2.23-15.58,1.48-17.8-.74-11.87-2.23-5.93-4.45-5.19-5.93-6.68-14.09-4.45-10.38-9.64-17.06-4.45-9.64v-11.87l3.71-8.16-2.23,2.23-3.71,8.9-1.48-2.23-7.42-20.03-1.48-5.93v-4.45l1.48-.74,2.97.74h11.13l11.13-3.71,2.97-4.45,3.71-11.13,1.48-9.64.74-11.87.74-4.45,14.83-.74,5.19,19.28,5.93,11.87,8.9,9.64,5.19,2.23,11.13,1.48h20.03l11.87-2.23,7.42-3.71,5.93-6.68,3.71-8.9.74-4.45.74-12.61,1.48-5.19,5.93-5.19,12.61-3.71Z"/>
  <path class="cls-5" d="M255.14,139.44l6.68,1.48,4.45,2.97,5.19,5.19,12.61,20.77,13.35,20.03,1.48,3.71-1.48,10.38,2.23,10.38,5.19,17.8-.74,2.97-14.09,3.71h-8.16l-16.32-1.48,2.23-1.48,8.16-1.48,1.48-.74-1.48-2.97-5.19-2.97-11.13-2.23-5.19-.74h-23.73l-14.83,2.23-9.64,2.97v3.71l42.28,2.23v.74l-28.18,3.71-25.96,5.93-6.68.74h-9.64l-10.38-1.48h-23.73l-.74-3.71,5.93-3.71,21.51-.74,2.23-.74-.74-3.71-.74-2.23-6.68-2.23h-7.42l-11.13,2.23-4.45,1.48-.74-1.48-.74-9.64v-10.38l1.48-7.42,3.71-7.42,5.19-5.93,24.48-11.13,14.83-7.42,16.32-9.64,16.32-8.16,22.25-9.64,10.38-4.45Z"/>
  <path class="cls-13" d="M249.95,241.05l17.06.74,6.68.74,5.19,4.45.74,1.48v11.87l-1.48,13.35-4.45,8.9-5.93,5.19-11.13,2.97h-25.96l-8.16-1.48-5.93-5.19-5.93-6.68-4.45-9.64-4.45-17.06v-1.48l14.09-3.71,25.22-3.71,8.9-.74Z"/>
  <path class="cls-1" d="M168.37,330.8l3.71,1.48,4.45,2.23-2.23.74,2.97,3.71h2.23l1.48,2.23,2.97.74-.74-2.23.74-2.97,3.71.74v5.93l-.74.74,5.93,2.97v1.48l3.71,1.48h4.45v.74l-3.71.74,2.23,1.48,11.87.74.74-2.23,7.42-1.48,3.71-1.48,2.97.74,8.16-2.97,2.97-2.23,2.23-.74.74-2.23,3.71-.74,7.42-5.19,3.71-3.71h2.97l-1.48,2.97-10.38,11.13-5.19,5.93-12.61,12.61-4.45,2.23-11.13,2.97h-11.87l-8.9-2.23-7.42-3.71-3.71-4.45-3.71-9.64-2.97-10.38-4.45-5.93-1.48-2.23Z"/>
  <path class="cls-6" d="M242.54,331.54h12.61l-1.48,2.97-5.93,4.45-3.71,2.23-3.71.74-2.97,3.71-5.93,2.97-6.68,1.48-2.97-.74-2.23,1.48-7.42,1.48-.74,1.48h-11.87l-2.97-1.48v-1.48l-5.19-1.48,1.48-.74v-1.48l-7.42-2.97,2.23-.74-.74-5.93-2.97-.74v5.19l-3.71-.74-4.45-2.97-2.23-3.71,24.48-1.48h9.64l5.19-.74,29.67-.74Z"/>
  <path class="cls-21" d="M359.72,236.6h1.48l2.23,5.19v8.16l-4.45,25.22-2.97,9.64-4.45,8.16-8.16,8.9-8.16,2.97h-2.23v-18.54l.74-2.23,8.16-2.23,2.23-3.71v-3.71l-2.97,3.71-6.68.74-.74-.74v-3.71l7.42-5.93,4.45-5.19,8.16-13.35,4.45-9.64,1.48-3.71Z"/>
  <path class="cls-13" d="M157.98,257.37l.74,2.97v5.19l2.97,2.23h6.68l2.97-2.97,1.48-5.19,3.71,1.48v8.9l-2.97,12.61-2.97,5.93-3.71,2.23-4.45,1.48h-12.61l-4.45-1.48,2.23-14.09v-14.09l10.38-5.19Z"/>
  <path class="cls-13" d="M134.25,250.69h3.71l1.48,1.48,3.71,14.83v7.42l-2.23,14.09-2.23.74-6.68-4.45-3.71-5.93-2.97-9.64-2.23-11.87v-3.71l11.13-2.97Z"/>
  <path class="cls-4" d="M246.99,246.24h10.38l8.9,2.23,4.45,2.97,1.48,2.23-7.42-.74-2.97-.74v5.93l-2.97,4.45-2.23,1.48h-5.93l-4.45-2.97-1.48-2.97v-5.93l-8.16,2.97-7.42,3.71h-1.48l1.48-2.97,5.93-5.19,5.93-2.97,5.93-1.48Z"/>
  <path class="cls-4" d="M222.51,298.16l2.23.74.74,1.48v5.93l-4.45,7.42-4.45,3.71-6.68,1.48-6.68,4.45-3.71,2.97-1.48.74h-6.68l-7.42-2.97-7.42-6.68-9.64-7.42-1.48-3.71,5.19-5.93.74,1.48-1.48,2.97.74,3.71,8.16,5.93,6.68,5.93,6.68,2.97h5.19l9.64-7.42,8.9-2.23,4.45-5.19,2.23-5.19v-5.19Z"/>
  <path class="cls-13" d="M146.11,249.95h23.73l7.42,1.48v5.93l-2.97-.74-5.19-2.23h-8.9l-10.38,3.71-2.97,1.48-1.48-3.71v-5.19l.74-.74Z"/>
  <path class="cls-3" d="M225.48,335.25h6.68v9.64l.74-.74h5.19l-2.23,2.23-7.42,2.97-3.71.74-2.97-.74-2.23,1.48-7.42,1.48-1.48-2.23,5.93-2.23,6.68-1.48,2.97-.74-.74-10.38Z"/>
  <path class="cls-25" d="M208.42,337.47h7.42l.74,1.48v8.16l-2.23,1.48-7.42.74-1.48-.74-.74-10.38,3.71-.74Z"/>
  <path class="cls-11" d="M193.58,337.47l10.38.74.74,9.64-3.71.74-6.68-.74-1.48-2.23v-5.19l.74-2.97Z"/>
  <path class="cls-4" d="M252.92,313l5.19.74,9.64,5.93,4.45,4.45v4.45l-7.42,17.06-5.93,11.13-.74-1.48,11.13-25.96.74-4.45-5.19-4.45-11.87-6.68v-.74Z"/>
  <path class="cls-12" d="M221.77,335.99h2.97l.74,2.97v5.93l-2.23,1.48-5.93.74-.74-9.64,5.19-1.48Z"/>
  <path class="cls-4" d="M284.81,322.64l2.23,2.23.74,2.23v5.19l-2.97,9.64-8.16,16.32-2.97,3.71-1.48-.74,11.13-21.51,1.48-5.19v-11.87Z"/>
  <path class="cls-26" d="M225.48,335.25h6.68v8.16l-.74,2.23-3.71.74-1.48-.74-.74-10.38Z"/>
  <path class="cls-15" d="M235.86,333.76h3.71v9.64h-5.93l-.74-.74v-8.16l2.97-.74Z"/>
  <path class="cls-2" d="M195.07,348.6h5.93l4.45.74v.74l5.93,1.48v2.23h-11.87l-2.97-1.48v-1.48l-1.48-.74v-1.48Z"/>
  <path class="cls-4" d="M207.68,310.03l4.45.74v1.48l-8.9,4.45-2.97,2.97h-1.48v-3.71l5.93-4.45,2.97-1.48Z"/>
  <path class="cls-23" d="M241.05,333.02h4.45v5.93l-2.23,2.97h-2.97v-8.16l.74-.74Z"/>
  <path class="cls-8" d="M173.56,334.51l4.45,1.48,4.45.74,1.48,5.19-3.71-.74-4.45-2.97-2.23-3.71Z"/>
  <path class="cls-28" d="M252.18,332.28l2.97.74-7.42,5.93h-1.48v-5.19l.74-.74,5.19-.74Z"/>
  <path class="cls-22" d="M188.39,337.47h3.71l.74,2.23-.74,5.93-2.97-.74-.74-1.48v-5.93Z"/>
  <path class="cls-16" d="M215.83,347.86h5.19v1.48l-2.23,1.48-7.42,1.48-1.48-2.23,5.93-2.23Z"/>
  <path class="cls-27" d="M181.72,342.67l3.71.74,7.42,3.71v1.48h-5.19l-5.93-5.19v-.74Z"/>
  <path class="cls-18" d="M183.94,336.73l3.71.74v5.93l-2.97-.74-.74-5.93Z"/>
  <path class="cls-29" d="M232.89,344.15h5.19l-2.23,2.23-5.19,2.23v-1.48l-2.97-.74,5.19-2.23Z"/>
  <path class="cls-17" d="M195.07,348.6h5.93l4.45.74-1.48,2.97-2.97-.74v-1.48l-5.19.74-.74-2.23Z"/>
  <path class="cls-7" d="M252.92,250.69l1.48.74-2.23,2.97v5.19l-2.23-.74-.74-5.19,3.71-2.97Z"/>
  <path class="cls-20" d="M206.93,313.74l1.48.74v1.48l-6.68,4.45-1.48.74,1.48-2.97,3.71-3.71,1.48-.74Z"/>
  <path class="cls-10" d="M197.29,350.82l5.19.74,1.48.74v1.48l-6.68-.74v-2.23Z"/>
  <path class="cls-19" d="M162.43,257.37h1.48l-.74,6.68-.74,1.48-2.23-2.23.74-4.45,1.48-1.48Z"/>
  <path class="cls-9" d="M173.56,334.51l4.45,1.48,2.97.74h-2.23v2.97l-2.97-1.48-2.23-3.71Z"/>
</svg>