<?xml version="1.0" encoding="UTF-8"?>
<svg version="1.1" viewBox="0 0 2048 893" width="1519" height="663" xmlns="http://www.w3.org/2000/svg">
<path transform="translate(993,2)" d="m0 0h53l25 3 23 5 24 7 21 8 25 12 20 11 20 14 16 13 14 12 17 17 11 14 14 18 12 20 12 23 8 19 10 30 6 26 3 23 2 22v26l-4 36-4 20-6 23-7 20-11 24-13 24-15 22-11 14-13 15-16 16-11 9-15 12-21 14-23 13-22 10-25 9-25 7-30 5-11 1h-57l-29-4-25-6-30-10-26-12-17-9-19-12-16-12-11-9-7-7-8-7-11-11-7-8-13-16-11-16-10-16-12-23-8-18-10-30-6-28-2-12-2-23v-37l2-23 5-28 7-25 8-22 8-18 12-23 11-17 13-18 13-15 14-15 13-12 12-10 18-13 18-11 20-11 25-11 24-8 29-7 19-3z" fill="#FECF05"/>
<path transform="translate(1022,90)" d="m0 0h7l16 9 8 5 3 1h20l9 4 4 7 2 7 8 8 7 4 12 3 10 6 12 12 6 9 4 13 1 1 18 3 6 4 8 9 7 14 3 12 6 45v20l-3 13 1 7 9 19 1 4v9l-7 38-4 13-6 11-8 10-8 6-10 4-7 1-3 15-6 18-8 17-7 9-16 16-8 7-13 11-13 7-10 9-14 10-16 8-13 3-9 1h-25l-18-2-11-3-9-7-6-7-9-17-7-17-15-27-5-12-15-41-4-19-11-6-8-9-5-12-4-14-4-8-1-10 6-3 21-5v-3l-1-1v-6l2-2-1-13v-27l1-5-4-2-14-23-5-8v-36l7-8 10-10 15-8h2l1-9 4-12 6-12 9-9 8-4 8-3 10-9 8-6 12-8 10-9 2-1h25l9-3z"/>
<path transform="translate(1119,329)" d="m0 0h5l6 20 10 18 4 6 7 1v34l-2 17-6 21-7 16-6 10-10 11-8 7-12 11-10 8v-3l11-21-6 8-7 11-22 22-13 9-10 5-10 3-21 2-24-1-16-3-8-6-7-8-9-19-6-14-13-23-6-13v-16l5-11-3 3-5 12-2-3-10-27-2-8v-6l2-1 4 1h15l15-5 4-6 5-15 2-13 1-16 1-6 20-1 7 26 8 16 12 13 7 3 15 2h27l16-3 10-5 8-9 5-12 1-6 1-17 2-7 8-7z" fill="#EFDEBB"/>
<path transform="translate(1053,190)" d="m0 0 9 2 6 4 7 7 17 28 18 27 2 5-2 14 3 14 7 24-1 4-19 5h-11l-22-2 3-2 11-2 2-1-2-4-7-4-15-3-7-1h-32l-20 3-13 4v5l57 3v1l-38 5-35 8-9 1h-13l-14-2h-32l-1-5 8-5 29-1 3-1-1-5-1-3-9-3h-10l-15 3-6 2-1-2-1-13v-14l2-10 5-10 7-8 33-15 20-10 22-13 22-11 30-13z" fill="#F1DFBB"/>
<path transform="translate(521,705)" d="m0 0h7l7 3 6 5 4 9 1 5-1 25-5 86-3 8-6 5-3 1h-8l-7-4-4-6v-19l4-68-5 5-8 9-9 12-11 13-7 6-11 4h-11l-9-4-10-8-10-13-11-17-1-4-1 1 1 28 4 41v13l-4 6-6 4h-10l-6-4-4-6-4-30-2-24-1-36 1-19 3-10 4-6 5-4 5-2h10l8 4 9 8 13 18 11 18 7 9 3 2 4-1 10-11 11-14 13-16 7-8 9-9 7-4z" fill="#020204"/>
<path transform="translate(1523,414)" d="m0 0 19 1 20 4 18 6 16 8 15 9 10 8 10 9 10 10 11 15 9 16 7 19 4 20 1 11v9l-3 21-6 16-6 11-8 10-12 12-11 7-5 2h-8l-8-4-6-7-3-7v-12l4-7 11-9 9-12 5-10 4-14v-22l-4-16-8-16-9-12-9-9-14-10-16-8-18-6-11-2-16-1-11 1h-12l-7-4-5-6-3-7v-8l4-8 6-4 14-3z" fill="#020203"/>
<path transform="translate(107,680)" d="m0 0h15l13 3 9 5 5 6 1 2v9l-5 8-7 3h-7l-12-4h-12l-13 4-12 7-9 8-9 14-5 13-2 17 2 14 5 12 7 8 9 6 12 3h8l9-2 11-6 7-8 5-12 1-6h-43l-8-4-4-6-1-9 3-6 6-5 3-1h52l11 4 6 5 5 9 2 11-1 14-5 15-8 13-11 12-14 9-14 5-5 1h-20l-15-4-15-8-10-9-8-9-6-10-6-18-1-6v-27l4-17 7-16 8-12 11-12 14-10 16-8 14-4z" fill="#020205"/>
<path transform="translate(782,699)" d="m0 0h7l7 4 4 6 1 8-2 55-2 34-2 11-5 8-6 5-7 2-10-1-12-6-21-16-13-11-20-18-7-7v9l4 34 2 13v8l-4 7-6 4-6 1-9-3-5-6-4-24-4-36-2-29v-16l4-7 5-4 3-1h7l12 6 13 10 8 8 8 7 10 10 11 9 15 13 9 7 1-1 2-39 1-29 1-14 4-7z" fill="#020205"/>
<path transform="translate(288,693)" d="m0 0h10l4 2 16 1 17 4 14 7 11 10 8 14 3 11v16l-4 13-5 10-9 11-8 7-1 2 11 2 6 3 4 5 2 5-1 9-4 6-7 3h-8l-29-9-5-2v13l-4 8-7 4h-10l-6-4-4-7-4-101-1-19v-13l4-7zm21 34 1 34 1 21 5-1 9-5 8-7 6-12 1-11-3-8-5-5-8-4-9-2z" fill="#020204"/>
<path transform="translate(1555,702)" d="m0 0h12l8 4 8 10 16 34 12 30 8 23 7 22v7l-3 6-6 5-2 1h-9l-6-4-4-5-5-16v-3l-42 12h-2l-1 10-3 7-6 4-3 1h-9l-6-4-4-8 1-13 9-48 7-35 5-17 6-14 7-7zm8 46-4 16-5 26v3l7-1 18-5 1-2-11-26-5-11z" fill="#020204"/>
<path transform="translate(588,702)" d="m0 0h13l8 5 6 7 11 22 13 30 10 27 10 31v9l-4 6-5 4-2 1h-9l-6-4-5-8-5-16-27 8-14 4-2 6-3 10-5 4-4 2h-9l-7-4-3-6-1-7 8-44 10-50 7-21 5-9 7-6zm8 46-7 33-2 12 8-1 17-5 1-2-8-20-8-17z" fill="#020204"/>
<path transform="translate(844,702)" d="m0 0h13l8 5 6 7 8 16 9 19 11 27 12 34 4 14v10l-4 6-7 4h-8l-7-4-4-6-6-18-23 7-18 5-2 7-3 9-6 5-3 1h-9l-5-3-4-5-1-2v-13l13-68 5-23 7-20 6-9zm8 47-5 23-4 21 8-1 17-5 1-3-11-26-4-9z" fill="#020204"/>
<path transform="translate(1761,707)" d="m0 0h19l19 2 17 4 12 5 11 7 7 7 6 10 4 13 1 13-2 13-5 13-7 11-10 11-13 9-14 7-18 6-14 3h-9l-9-3-5-4-3-7 1-33v-55l-1-9v-10l4-7 6-5zm19 31v70l16-5 13-7 6-5 6-8 4-9 1-4v-10l-4-8-7-6-11-5-14-3z" fill="#020205"/>
<path transform="translate(1207,704)" d="m0 0h10l6 4 4 6 5 22 3 25v28l-3 16-5 13-7 10-7 7-12 7-16 4h-12l-12-3-11-6-8-7-9-13-5-13-3-14-1-8v-38l2-23 3-9 6-5 3-1h8l6 4 4 5 1 2v11l-2 27v24l3 16 5 10 8 7 6 2h7l8-3 6-7 4-11 2-21-1-17-4-23-2-8v-9l5-8z" fill="#020204"/>
<path transform="translate(1987,704)" d="m0 0h10l6 4 4 8 5 25 2 17 1 21-2 18-4 15-7 13-10 10-10 6-12 4-5 1h-13l-11-3-10-5-10-9-7-9-5-11-4-15-2-16v-29l2-26 2-8 4-6 6-3h8l8 5 3 5v15l-2 32v10l2 17 4 11 6 8 6 4 4 1h7l8-3 6-7 4-10 2-14v-17l-2-17-5-23v-7l3-6 5-5z" fill="#020205"/>
<path transform="translate(1714,704)" d="m0 0h10l6 4 4 6 4 17 3 21 1 10v26l-4 20-5 11-6 9-10 9-12 6-13 3h-12l-12-3-11-6-9-8-9-14-5-15-2-9-1-9v-39l2-23 3-8 6-5 3-1h8l6 4 4 5 1 2v10l-2 27v26l3 15 5 10 8 7 6 2h7l7-3 5-4 4-8 3-12v-31l-4-24-2-8v-9l4-7z" fill="#020204"/>
<path transform="translate(205,693)" d="m0 0 18 2 41 8 5 3 4 7 1 8-3 7-6 4-3 1h-10l-42-8-2 2-3 37 12-1h12l7 4 4 7 1 6-3 7-5 5-5 2-22 1 2 16 2 6 13-1 15-3h12l6 4 4 8-1 9-6 7-9 3-20 4h-21l-10-4-7-6-6-10-3-11-3-27v-38l3-32 3-10 5-8 6-5 7-3z" fill="#020205"/>
<path transform="translate(1456,355)" d="m0 0h12l8 4 6 7 3 7v11l-3 6-4 5-10 5-22 3-19 5-5 2 16 13 14 11 11 9 4 9v9l-4 10-8 7-6 2h-8l-8-3-11-8-16-13-14-11-11-11-7-12-3-12v-8l3-11 5-8 7-7 14-8 17-6 23-5z" fill="#020203"/>
<path transform="translate(1376,694)" d="m0 0h22l12 3 13 7 6 5 2 4v9l-3 6-6 5-3 1h-7l-14-7-4-1h-15l-9 4-6 4-7 7-7 14-2 8v11l4 13 7 11 8 7 10 5 6 2 12 1 13-2 10-4h10l6 4 4 5 1 8-3 8-5 4-12 5-13 3h-25l-15-4-16-8-9-7-7-7-9-14-6-13-3-13v-21l4-16 7-14 8-10 8-8 14-9 14-5z" fill="#020204"/>
<path transform="translate(1066,711)" d="m0 0h15l13 3 9 5 10 9 3 7v7l-4 7-8 4h-7l-8-4-5-4-6-2h-15l-13 5-11 8-8 9-7 14-1 5v9l4 9 7 6 12 5 7 1h11l20-4 12-4h9l6 4 4 6 1 8-3 6-5 5-15 5-21 4h-28l-17-4-14-7-10-9-6-10-4-11-1-6v-12l3-15 7-16 8-12 9-10 12-9 14-7 14-4z" fill="#020205"/>
<path transform="translate(1046,327)" d="m0 0 23 1 9 1 7 6 1 2v16l-2 18-6 12-8 7-15 4h-35l-11-2-8-7-8-9-6-13-6-23v-2l19-5 34-5z" fill="#7676DA"/>
<path transform="translate(1468,709)" d="m0 0h8l7 4 4 7v9l-8 40-3 29v20l2 5 17 1 9 2 5 4 2 4v10l-4 6-6 4-4 1h-24l-12-4-8-7-4-6-3-9-1-7v-36l3-26 5-26 5-18 7-6z" fill="#020205"/>
<path transform="translate(1877,735)" d="m0 0h10l8 7 2 5-1 40-1 33-1 11-4 6-7 4h-10l-8-7-2-6 2-66 1-16 4-7z" fill="#030306"/>
<path transform="translate(936,448)" d="m0 0 5 2 6 3-3 1 4 5h3l2 3 4 1-1-3 1-4 5 1v8l-1 1 8 4v2l5 2h6v1l-5 1 3 2 16 1 1-3 10-2 5-2 4 1 11-4 4-3 3-1 1-3 5-1 10-7 5-5h4l-2 4-14 15-7 8-17 17-6 3-15 4h-16l-12-3-10-5-5-6-5-13-4-14-6-8z" fill="#020202"/>
<path transform="translate(1036,449)" d="m0 0h17l-2 4-8 6-5 3-5 1-4 5-8 4-9 2-4-1-3 2-10 2-1 2h-16l-4-2v-2l-7-2 2-1v-2l-10-4 3-1-1-8-4-1v7l-5-1-6-4-3-5 33-2h13l7-1z" fill="#000001"/>
<path transform="translate(1194,321)" d="m0 0h2l3 7v11l-6 34-4 13-6 11-11 12-11 4h-3v-25l1-3 11-3 3-5v-5l-4 5-9 1-1-1v-5l10-8 6-7 11-18 6-13z" fill="#EDDBBC"/>
<path transform="translate(922,349)" d="m0 0 1 4v7l4 3h9l4-4 2-7 5 2v12l-4 17-4 8-5 3-6 2h-17l-6-2 3-19v-19z" fill="#7676DA"/>
<path transform="translate(890,340)" d="m0 0h5l2 2 5 20v10l-3 19-3 1-9-6-5-8-4-13-3-16v-5z" fill="#7676DA"/>
<path transform="translate(1878,690)" d="m0 0h10l6 4 4 7v8l-3 6-5 4-2 1h-11l-6-4-3-5-1-9 3-6 5-5z" fill="#040408"/>
<path transform="translate(1042,334)" d="m0 0h14l12 3 6 4 2 3-10-1-4-1v8l-4 6-3 2h-8l-6-4-2-4v-8l-11 4-10 5h-2l2-4 8-7 8-4z"/>
<path transform="translate(1009,404)" d="m0 0 3 1 1 2v8l-6 10-6 5-9 2-9 6-5 4-2 1h-9l-10-4-10-9-13-10-2-5 7-8 1 2-2 4 1 5 11 8 9 8 9 4h7l13-10 12-3 6-7 3-7z"/>
<path transform="translate(906,339)" d="m0 0h32l10 2v8l-4-1-7-3h-12l-14 5-4 2-2-5v-7z" fill="#7676DA"/>
<path transform="translate(1013,454)" d="m0 0h9v13l1-1h7l-3 3-10 4-5 1-4-1-3 2-10 2-2-3 8-3 9-2 4-1z" fill="#E3E1EC"/>
<path transform="translate(990,457)" d="m0 0h10l1 2v11l-3 2-10 1-2-1-1-14z" fill="#EBEAF5"/>
<path transform="translate(970,457)" d="m0 0 14 1 1 13-5 1-9-1-2-3v-7z" fill="#ECEBF6"/>
<path transform="translate(1050,424)" d="m0 0 7 1 13 8 6 6v6l-10 23-8 15-1-2 15-35 1-6-7-6-16-9z"/>
<path transform="translate(1008,455)" d="m0 0h4l1 4v8l-3 2-8 1-1-13z" fill="#EBEAF1"/>
<path transform="translate(1093,437)" d="m0 0 3 3 1 3v7l-4 13-11 22-4 5-2-1 15-29 2-7z"/>
<path transform="translate(1013,454)" d="m0 0h9v11l-1 3-5 1-2-1z" fill="#E1E0F1"/>
<path transform="translate(1027,452)" d="m0 0h5v13h-8l-1-1v-11z" fill="#E8E4EC"/>
<path transform="translate(972,472)" d="m0 0h8l6 1v1l8 2v3h-16l-4-2v-2l-2-1z" fill="#E4E0E7"/>
<path transform="translate(989,420)" d="m0 0 6 1v2l-12 6-4 4h-2v-5l8-6z"/>
<path transform="translate(1034,451)" d="m0 0h6v8l-3 4h-4v-11z" fill="#E5E2EA"/>
<path transform="translate(943,453)" d="m0 0 6 2 6 1 2 7-5-1-6-4z" fill="#E3E0E9"/>
<path transform="translate(1049,450)" d="m0 0 4 1-10 8h-2v-7l1-1z" fill="#E0DDEB"/>
<path transform="translate(963,457)" d="m0 0h5l1 3-1 8-4-1-1-2z" fill="#DEDBEA"/>
<path transform="translate(1e3 471)" d="m0 0h7v2l-3 2-10 2-2-3z" fill="#E3DDE3"/>
<path transform="translate(954,464)" d="m0 0 5 1 10 5v2h-7l-8-7z" fill="#D5D0E2"/>
<path transform="translate(957,456)" d="m0 0 5 1v8l-4-1z" fill="#E2DFEC"/>
<path transform="translate(1023,466)" d="m0 0h7l-3 3-7 3v-2l-4-1z" fill="#BAB7C2"/>
<path transform="translate(972,472)" d="m0 0h8l6 1-2 4-4-1v-2l-7 1z" fill="#ACA8B2"/>
<path transform="translate(1050,340)" d="m0 0 2 1-3 4v7l-3-1-1-7z" fill="#D2CDDF"/>
<path transform="translate(988,425)" d="m0 0 2 1v2l-9 6-2 1 2-4 5-5z" fill="#C9BDC5"/>
<path transform="translate(975,475)" d="m0 0 7 1 2 1v2l-9-1z" fill="#D3CEE0"/>
<path transform="translate(928,349)" d="m0 0h2l-1 9-1 2-3-3 1-6z" fill="#C3BFE0"/>
<path transform="translate(943,453)" d="m0 0 6 2 4 1h-3v4l-4-2z" fill="#A39EC6"/>
</svg>
